<?xml version="1.0" encoding="UTF-8"?>
<svg xmlns="http://www.w3.org/2000/svg" viewBox="0 0 658 658" width="658" height="658">
  <path d="M610,393L607,388L607,386L603,378L601,376L599,371L597,369L595,365L592,362L592,361L589,358L589,357L571,339L570,339L563,333L562,333L557,329L552,327L550,325L542,321L540,321L537,319L535,319L532,317L530,317L529,316L527,316L523,314L520,314L519,313L515,313L514,312L510,312L509,311L503,311L502,310L389,310L389,312L388,313L388,315L387,316L387,318L386,319L386,321L385,322L385,324L384,325L384,327L383,328L383,330L382,331L382,333L381,334L381,336L380,337L380,339L379,340L379,342L378,343L378,345L377,346L377,348L376,349L376,351L375,352L375,354L374,355L374,357L373,358L373,360L372,361L372,363L371,364L371,366L370,367L370,369L369,370L369,372L368,373L368,375L367,376L367,378L366,379L366,381L365,382L365,384L364,385L364,387L363,388L363,390L362,391L362,393L361,394L361,396L360,397L360,399L359,400L359,402L358,403L357,407L451,407L452,408L461,408L462,409L466,409L467,410L472,411L476,414L477,414L482,419L482,420L485,424L485,426L487,430L487,450L486,451L486,454L483,460L476,467L470,470L464,471L463,472L456,472L455,473L202,473L201,477L200,478L200,480L199,481L199,483L198,484L198,486L197,487L197,489L196,490L196,492L195,493L195,495L194,496L194,498L193,499L193,501L192,502L192,504L191,505L191,507L190,508L190,510L189,511L189,513L188,514L188,516L187,517L187,519L186,520L186,522L185,523L185,525L184,526L184,528L183,529L183,531L182,532L182,535L180,538L180,540L179,541L179,543L178,544L178,546L177,547L177,549L176,550L176,552L174,556L174,559L172,562L172,564L170,568L170,571L494,571L495,570L505,570L506,569L516,568L517,567L524,566L525,565L533,563L536,561L538,561L554,553L556,551L559,550L569,542L570,542L575,537L576,537L585,528L585,527L590,522L590,521L596,514L599,508L601,506L608,492L608,490L611,485L611,482L613,479L613,476L614,475L614,472L615,471L615,468L616,467L617,456L618,455L618,426L617,425L616,413L615,412L614,405L613,404L613,402L612,401Z" fill="#6d6d6f" fill-rule="evenodd"/>
  <path d="M5,253L17,247L22,243L25,242L30,238L32,238L35,235L38,234L40,232L47,228L49,228L50,227L52,227L56,225L60,225L61,224L80,224L81,225L85,225L86,226L86,228L85,229L79,230L71,234L65,239L64,239L58,250L57,255L55,257L55,259L54,260L54,263L52,265L50,269L50,271L48,273L46,277L43,280L43,281L38,286L38,287L35,290L34,290L34,292L39,291L43,289L45,287L47,287L49,285L56,282L59,279L62,278L64,276L76,270L78,270L79,269L84,269L85,268L89,268L90,267L94,267L95,268L96,267L102,267L104,269L104,272L103,274L104,275L104,291L105,292L106,304L107,305L107,309L108,310L108,312L110,316L110,319L112,322L112,324L114,327L114,329L120,341L122,343L124,348L126,350L128,354L138,365L140,369L141,369L145,373L146,373L152,379L153,379L161,386L171,391L173,393L177,395L179,395L186,399L191,400L194,402L196,402L200,404L203,404L204,405L210,405L211,406L215,406L216,407L223,407L224,408L332,408L335,406L335,402L336,401L336,399L337,398L337,396L338,395L338,393L339,392L339,390L340,389L340,387L341,386L341,384L342,383L342,381L343,380L343,378L344,377L344,375L345,374L345,372L346,371L346,369L347,368L347,366L348,365L348,363L349,362L349,360L350,359L350,357L351,356L351,354L352,353L352,351L353,350L353,348L354,347L354,345L355,344L355,342L356,341L356,339L357,338L357,336L358,335L358,333L359,332L359,330L360,329L360,327L361,326L363,318L365,315L365,312L366,310L364,309L269,309L268,308L263,308L262,307L256,307L250,304L248,304L239,295L239,293L236,287L236,268L237,267L237,263L242,256L242,255L246,251L252,248L257,247L258,246L263,246L264,247L264,250L261,253L258,259L253,264L252,268L255,268L257,266L261,264L263,264L267,261L269,261L273,259L276,259L280,257L287,256L288,255L296,255L297,254L308,254L309,253L313,253L314,254L328,254L329,255L336,255L337,256L342,256L343,257L349,257L350,258L354,258L355,259L358,259L362,261L367,261L368,262L374,263L378,265L385,266L389,268L392,268L393,269L399,270L403,272L406,272L410,274L414,274L415,275L417,275L418,276L422,276L426,278L431,278L432,279L441,279L442,280L457,280L458,279L463,279L464,278L466,278L467,277L469,277L473,275L481,274L482,273L484,273L488,271L491,271L492,270L500,270L501,268L505,268L506,267L512,267L513,266L522,266L523,265L543,265L544,264L547,264L548,265L557,265L558,266L563,266L564,267L567,267L570,269L574,269L576,271L579,271L581,273L583,273L586,276L590,278L596,284L596,285L599,287L601,286L601,285L605,281L607,277L607,275L608,274L608,261L607,260L607,253L616,243L619,242L621,240L623,240L624,239L628,239L629,238L632,238L633,237L649,237L651,238L652,236L651,235L650,226L648,222L648,219L646,216L645,210L636,192L626,180L625,180L623,178L616,174L614,174L611,172L605,171L604,170L597,170L596,169L586,169L585,170L575,170L574,171L566,171L565,172L557,172L556,173L547,173L546,174L516,175L515,174L505,174L504,173L497,173L494,171L489,171L488,170L481,169L478,167L472,166L461,160L459,160L457,158L452,156L442,149L439,148L435,144L431,142L425,136L424,136L418,130L418,129L414,125L414,124L411,122L409,118L408,118L404,114L400,114L399,113L396,113L395,112L383,112L382,111L380,111L375,107L374,107L371,104L370,104L359,96L356,95L354,93L350,92L349,91L347,91L346,90L344,90L341,88L339,88L335,86L332,86L331,85L325,84L324,83L319,83L318,82L305,82L304,81L294,81L293,82L284,82L283,83L272,84L271,85L268,85L267,86L260,87L259,88L257,88L255,90L252,90L250,92L248,92L248,93L254,93L255,92L267,92L268,91L277,92L278,93L280,93L284,95L287,95L293,103L293,110L292,111L292,114L288,122L285,125L282,131L275,139L265,144L261,144L260,145L254,145L253,146L248,146L247,145L224,145L223,146L220,146L219,145L212,145L211,144L202,144L201,143L196,143L195,142L187,142L186,141L182,141L181,140L177,140L176,139L169,139L168,138L163,138L162,137L159,137L158,136L152,136L151,135L148,135L147,134L141,134L137,132L129,131L128,130L120,130L119,129L117,129L119,129L123,131L126,131L129,133L133,133L135,135L138,135L144,138L148,138L154,141L156,141L160,143L163,143L166,145L169,145L177,149L185,151L186,152L186,154L184,156L180,158L178,158L169,163L156,163L155,164L144,164L143,165L134,165L133,166L126,166L125,167L121,167L120,168L115,168L114,169L110,169L109,170L102,171L98,173L94,173L92,175L87,176L83,178L81,180L77,181L74,184L73,184L71,186L64,190L64,191L62,192L62,193L60,194L52,202L52,203L50,204L49,206L48,206L48,207L29,228L29,229L27,230L27,231L23,235L22,235L22,236L20,238L19,238L16,241L16,242L8,250L7,250L5,252Z M382,161L386,157L390,156L391,155L393,155L397,157L401,157L421,167L429,174L430,174L436,180L436,182L435,183L431,183L430,184L426,184L425,185L421,185L420,186L405,186L404,185L399,185L396,183L392,182L384,174L384,171L383,170L383,167L382,166Z" fill="#c9102a" fill-rule="evenodd"/>
</svg>
